<?xml version="1.0" encoding="utf-8" standalone="no"?>
<!DOCTYPE svg PUBLIC "-//W3C//DTD SVG 1.1//EN"
  "http://www.w3.org/Graphics/SVG/1.1/DTD/svg11.dtd">
<!-- Created with matplotlib (https://matplotlib.org/) -->
<svg height="576pt" version="1.1" viewBox="0 0 720 576" width="720pt" xmlns="http://www.w3.org/2000/svg" xmlns:xlink="http://www.w3.org/1999/xlink">
 <defs>
  <style type="text/css">
*{stroke-linecap:butt;stroke-linejoin:round;}
  </style>
 </defs>
 <g id="figure_1">
  <g id="patch_1">
   <path d="M 0 576 
L 720 576 
L 720 0 
L 0 0 
z
" style="fill:#ffffff;"/>
  </g>
  <g id="axes_1">
   <g id="patch_2">
    <path d="M 90 512.64 
L 648 512.64 
L 648 69.12 
L 90 69.12 
z
" style="fill:#ffffff;"/>
   </g>
   <g id="matplotlib.axis_1">
    <g id="xtick_1">
     <g id="line2d_1">
      <defs>
       <path d="M 0 0 
L 0 3.5 
" id="m58963d0932" style="stroke:#000000;stroke-width:0.8;"/>
      </defs>
      <g>
       <use style="stroke:#000000;stroke-width:0.8;" x="164.414187" xlink:href="#m58963d0932" y="512.64"/>
      </g>
     </g>
     <g id="text_1">
      <!-- 10 -->
      <defs>
       <path d="M 12.40625 8.296875 
L 28.515625 8.296875 
L 28.515625 63.921875 
L 10.984375 60.40625 
L 10.984375 69.390625 
L 28.421875 72.90625 
L 38.28125 72.90625 
L 38.28125 8.296875 
L 54.390625 8.296875 
L 54.390625 0 
L 12.40625 0 
z
" id="DejaVuSans-49"/>
       <path d="M 31.78125 66.40625 
Q 24.171875 66.40625 20.328125 58.90625 
Q 16.5 51.421875 16.5 36.375 
Q 16.5 21.390625 20.328125 13.890625 
Q 24.171875 6.390625 31.78125 6.390625 
Q 39.453125 6.390625 43.28125 13.890625 
Q 47.125 21.390625 47.125 36.375 
Q 47.125 51.421875 43.28125 58.90625 
Q 39.453125 66.40625 31.78125 66.40625 
z
M 31.78125 74.21875 
Q 44.046875 74.21875 50.515625 64.515625 
Q 56.984375 54.828125 56.984375 36.375 
Q 56.984375 17.96875 50.515625 8.265625 
Q 44.046875 -1.421875 31.78125 -1.421875 
Q 19.53125 -1.421875 13.0625 8.265625 
Q 6.59375 17.96875 6.59375 36.375 
Q 6.59375 54.828125 13.0625 64.515625 
Q 19.53125 74.21875 31.78125 74.21875 
z
" id="DejaVuSans-48"/>
      </defs>
      <g transform="translate(158.051687 527.238438)scale(0.1 -0.1)">
       <use xlink:href="#DejaVuSans-49"/>
       <use x="63.623047" xlink:href="#DejaVuSans-48"/>
      </g>
     </g>
    </g>
    <g id="xtick_2">
     <g id="line2d_2">
      <g>
       <use style="stroke:#000000;stroke-width:0.8;" x="246.248499" xlink:href="#m58963d0932" y="512.64"/>
      </g>
     </g>
     <g id="text_2">
      <!-- 20 -->
      <defs>
       <path d="M 19.1875 8.296875 
L 53.609375 8.296875 
L 53.609375 0 
L 7.328125 0 
L 7.328125 8.296875 
Q 12.9375 14.109375 22.625 23.890625 
Q 32.328125 33.6875 34.8125 36.53125 
Q 39.546875 41.84375 41.421875 45.53125 
Q 43.3125 49.21875 43.3125 52.78125 
Q 43.3125 58.59375 39.234375 62.25 
Q 35.15625 65.921875 28.609375 65.921875 
Q 23.96875 65.921875 18.8125 64.3125 
Q 13.671875 62.703125 7.8125 59.421875 
L 7.8125 69.390625 
Q 13.765625 71.78125 18.9375 73 
Q 24.125 74.21875 28.421875 74.21875 
Q 39.75 74.21875 46.484375 68.546875 
Q 53.21875 62.890625 53.21875 53.421875 
Q 53.21875 48.921875 51.53125 44.890625 
Q 49.859375 40.875 45.40625 35.40625 
Q 44.1875 33.984375 37.640625 27.21875 
Q 31.109375 20.453125 19.1875 8.296875 
z
" id="DejaVuSans-50"/>
      </defs>
      <g transform="translate(239.885999 527.238438)scale(0.1 -0.1)">
       <use xlink:href="#DejaVuSans-50"/>
       <use x="63.623047" xlink:href="#DejaVuSans-48"/>
      </g>
     </g>
    </g>
    <g id="xtick_3">
     <g id="line2d_3">
      <g>
       <use style="stroke:#000000;stroke-width:0.8;" x="328.082812" xlink:href="#m58963d0932" y="512.64"/>
      </g>
     </g>
     <g id="text_3">
      <!-- 30 -->
      <defs>
       <path d="M 40.578125 39.3125 
Q 47.65625 37.796875 51.625 33 
Q 55.609375 28.21875 55.609375 21.1875 
Q 55.609375 10.40625 48.1875 4.484375 
Q 40.765625 -1.421875 27.09375 -1.421875 
Q 22.515625 -1.421875 17.65625 -0.515625 
Q 12.796875 0.390625 7.625 2.203125 
L 7.625 11.71875 
Q 11.71875 9.328125 16.59375 8.109375 
Q 21.484375 6.890625 26.8125 6.890625 
Q 36.078125 6.890625 40.9375 10.546875 
Q 45.796875 14.203125 45.796875 21.1875 
Q 45.796875 27.640625 41.28125 31.265625 
Q 36.765625 34.90625 28.71875 34.90625 
L 20.21875 34.90625 
L 20.21875 43.015625 
L 29.109375 43.015625 
Q 36.375 43.015625 40.234375 45.921875 
Q 44.09375 48.828125 44.09375 54.296875 
Q 44.09375 59.90625 40.109375 62.90625 
Q 36.140625 65.921875 28.71875 65.921875 
Q 24.65625 65.921875 20.015625 65.03125 
Q 15.375 64.15625 9.8125 62.3125 
L 9.8125 71.09375 
Q 15.4375 72.65625 20.34375 73.4375 
Q 25.25 74.21875 29.59375 74.21875 
Q 40.828125 74.21875 47.359375 69.109375 
Q 53.90625 64.015625 53.90625 55.328125 
Q 53.90625 49.265625 50.4375 45.09375 
Q 46.96875 40.921875 40.578125 39.3125 
z
" id="DejaVuSans-51"/>
      </defs>
      <g transform="translate(321.720312 527.238438)scale(0.1 -0.1)">
       <use xlink:href="#DejaVuSans-51"/>
       <use x="63.623047" xlink:href="#DejaVuSans-48"/>
      </g>
     </g>
    </g>
    <g id="xtick_4">
     <g id="line2d_4">
      <g>
       <use style="stroke:#000000;stroke-width:0.8;" x="409.917124" xlink:href="#m58963d0932" y="512.64"/>
      </g>
     </g>
     <g id="text_4">
      <!-- 40 -->
      <defs>
       <path d="M 37.796875 64.3125 
L 12.890625 25.390625 
L 37.796875 25.390625 
z
M 35.203125 72.90625 
L 47.609375 72.90625 
L 47.609375 25.390625 
L 58.015625 25.390625 
L 58.015625 17.1875 
L 47.609375 17.1875 
L 47.609375 0 
L 37.796875 0 
L 37.796875 17.1875 
L 4.890625 17.1875 
L 4.890625 26.703125 
z
" id="DejaVuSans-52"/>
      </defs>
      <g transform="translate(403.554624 527.238438)scale(0.1 -0.1)">
       <use xlink:href="#DejaVuSans-52"/>
       <use x="63.623047" xlink:href="#DejaVuSans-48"/>
      </g>
     </g>
    </g>
    <g id="xtick_5">
     <g id="line2d_5">
      <g>
       <use style="stroke:#000000;stroke-width:0.8;" x="491.751436" xlink:href="#m58963d0932" y="512.64"/>
      </g>
     </g>
     <g id="text_5">
      <!-- 50 -->
      <defs>
       <path d="M 10.796875 72.90625 
L 49.515625 72.90625 
L 49.515625 64.59375 
L 19.828125 64.59375 
L 19.828125 46.734375 
Q 21.96875 47.46875 24.109375 47.828125 
Q 26.265625 48.1875 28.421875 48.1875 
Q 40.625 48.1875 47.75 41.5 
Q 54.890625 34.8125 54.890625 23.390625 
Q 54.890625 11.625 47.5625 5.09375 
Q 40.234375 -1.421875 26.90625 -1.421875 
Q 22.3125 -1.421875 17.546875 -0.640625 
Q 12.796875 0.140625 7.71875 1.703125 
L 7.71875 11.625 
Q 12.109375 9.234375 16.796875 8.0625 
Q 21.484375 6.890625 26.703125 6.890625 
Q 35.15625 6.890625 40.078125 11.328125 
Q 45.015625 15.765625 45.015625 23.390625 
Q 45.015625 31 40.078125 35.4375 
Q 35.15625 39.890625 26.703125 39.890625 
Q 22.75 39.890625 18.8125 39.015625 
Q 14.890625 38.140625 10.796875 36.28125 
z
" id="DejaVuSans-53"/>
      </defs>
      <g transform="translate(485.388936 527.238438)scale(0.1 -0.1)">
       <use xlink:href="#DejaVuSans-53"/>
       <use x="63.623047" xlink:href="#DejaVuSans-48"/>
      </g>
     </g>
    </g>
    <g id="xtick_6">
     <g id="line2d_6">
      <g>
       <use style="stroke:#000000;stroke-width:0.8;" x="573.585749" xlink:href="#m58963d0932" y="512.64"/>
      </g>
     </g>
     <g id="text_6">
      <!-- 60 -->
      <defs>
       <path d="M 33.015625 40.375 
Q 26.375 40.375 22.484375 35.828125 
Q 18.609375 31.296875 18.609375 23.390625 
Q 18.609375 15.53125 22.484375 10.953125 
Q 26.375 6.390625 33.015625 6.390625 
Q 39.65625 6.390625 43.53125 10.953125 
Q 47.40625 15.53125 47.40625 23.390625 
Q 47.40625 31.296875 43.53125 35.828125 
Q 39.65625 40.375 33.015625 40.375 
z
M 52.59375 71.296875 
L 52.59375 62.3125 
Q 48.875 64.0625 45.09375 64.984375 
Q 41.3125 65.921875 37.59375 65.921875 
Q 27.828125 65.921875 22.671875 59.328125 
Q 17.53125 52.734375 16.796875 39.40625 
Q 19.671875 43.65625 24.015625 45.921875 
Q 28.375 48.1875 33.59375 48.1875 
Q 44.578125 48.1875 50.953125 41.515625 
Q 57.328125 34.859375 57.328125 23.390625 
Q 57.328125 12.15625 50.6875 5.359375 
Q 44.046875 -1.421875 33.015625 -1.421875 
Q 20.359375 -1.421875 13.671875 8.265625 
Q 6.984375 17.96875 6.984375 36.375 
Q 6.984375 53.65625 15.1875 63.9375 
Q 23.390625 74.21875 37.203125 74.21875 
Q 40.921875 74.21875 44.703125 73.484375 
Q 48.484375 72.75 52.59375 71.296875 
z
" id="DejaVuSans-54"/>
      </defs>
      <g transform="translate(567.223249 527.238438)scale(0.1 -0.1)">
       <use xlink:href="#DejaVuSans-54"/>
       <use x="63.623047" xlink:href="#DejaVuSans-48"/>
      </g>
     </g>
    </g>
    <g id="text_7">
     <!-- Scattering angle $2\theta$ ($^{o}$) -->
     <defs>
      <path d="M 53.515625 70.515625 
L 53.515625 60.890625 
Q 47.90625 63.578125 42.921875 64.890625 
Q 37.9375 66.21875 33.296875 66.21875 
Q 25.25 66.21875 20.875 63.09375 
Q 16.5 59.96875 16.5 54.203125 
Q 16.5 49.359375 19.40625 46.890625 
Q 22.3125 44.4375 30.421875 42.921875 
L 36.375 41.703125 
Q 47.40625 39.59375 52.65625 34.296875 
Q 57.90625 29 57.90625 20.125 
Q 57.90625 9.515625 50.796875 4.046875 
Q 43.703125 -1.421875 29.984375 -1.421875 
Q 24.8125 -1.421875 18.96875 -0.25 
Q 13.140625 0.921875 6.890625 3.21875 
L 6.890625 13.375 
Q 12.890625 10.015625 18.65625 8.296875 
Q 24.421875 6.59375 29.984375 6.59375 
Q 38.421875 6.59375 43.015625 9.90625 
Q 47.609375 13.234375 47.609375 19.390625 
Q 47.609375 24.75 44.3125 27.78125 
Q 41.015625 30.8125 33.5 32.328125 
L 27.484375 33.5 
Q 16.453125 35.6875 11.515625 40.375 
Q 6.59375 45.0625 6.59375 53.421875 
Q 6.59375 63.09375 13.40625 68.65625 
Q 20.21875 74.21875 32.171875 74.21875 
Q 37.3125 74.21875 42.625 73.28125 
Q 47.953125 72.359375 53.515625 70.515625 
z
" id="DejaVuSans-83"/>
      <path d="M 48.78125 52.59375 
L 48.78125 44.1875 
Q 44.96875 46.296875 41.140625 47.34375 
Q 37.3125 48.390625 33.40625 48.390625 
Q 24.65625 48.390625 19.8125 42.84375 
Q 14.984375 37.3125 14.984375 27.296875 
Q 14.984375 17.28125 19.8125 11.734375 
Q 24.65625 6.203125 33.40625 6.203125 
Q 37.3125 6.203125 41.140625 7.25 
Q 44.96875 8.296875 48.78125 10.40625 
L 48.78125 2.09375 
Q 45.015625 0.34375 40.984375 -0.53125 
Q 36.96875 -1.421875 32.421875 -1.421875 
Q 20.0625 -1.421875 12.78125 6.34375 
Q 5.515625 14.109375 5.515625 27.296875 
Q 5.515625 40.671875 12.859375 48.328125 
Q 20.21875 56 33.015625 56 
Q 37.15625 56 41.109375 55.140625 
Q 45.0625 54.296875 48.78125 52.59375 
z
" id="DejaVuSans-99"/>
      <path d="M 34.28125 27.484375 
Q 23.390625 27.484375 19.1875 25 
Q 14.984375 22.515625 14.984375 16.5 
Q 14.984375 11.71875 18.140625 8.90625 
Q 21.296875 6.109375 26.703125 6.109375 
Q 34.1875 6.109375 38.703125 11.40625 
Q 43.21875 16.703125 43.21875 25.484375 
L 43.21875 27.484375 
z
M 52.203125 31.203125 
L 52.203125 0 
L 43.21875 0 
L 43.21875 8.296875 
Q 40.140625 3.328125 35.546875 0.953125 
Q 30.953125 -1.421875 24.3125 -1.421875 
Q 15.921875 -1.421875 10.953125 3.296875 
Q 6 8.015625 6 15.921875 
Q 6 25.140625 12.171875 29.828125 
Q 18.359375 34.515625 30.609375 34.515625 
L 43.21875 34.515625 
L 43.21875 35.40625 
Q 43.21875 41.609375 39.140625 45 
Q 35.0625 48.390625 27.6875 48.390625 
Q 23 48.390625 18.546875 47.265625 
Q 14.109375 46.140625 10.015625 43.890625 
L 10.015625 52.203125 
Q 14.9375 54.109375 19.578125 55.046875 
Q 24.21875 56 28.609375 56 
Q 40.484375 56 46.34375 49.84375 
Q 52.203125 43.703125 52.203125 31.203125 
z
" id="DejaVuSans-97"/>
      <path d="M 18.3125 70.21875 
L 18.3125 54.6875 
L 36.8125 54.6875 
L 36.8125 47.703125 
L 18.3125 47.703125 
L 18.3125 18.015625 
Q 18.3125 11.328125 20.140625 9.421875 
Q 21.96875 7.515625 27.59375 7.515625 
L 36.8125 7.515625 
L 36.8125 0 
L 27.59375 0 
Q 17.1875 0 13.234375 3.875 
Q 9.28125 7.765625 9.28125 18.015625 
L 9.28125 47.703125 
L 2.6875 47.703125 
L 2.6875 54.6875 
L 9.28125 54.6875 
L 9.28125 70.21875 
z
" id="DejaVuSans-116"/>
      <path d="M 56.203125 29.59375 
L 56.203125 25.203125 
L 14.890625 25.203125 
Q 15.484375 15.921875 20.484375 11.0625 
Q 25.484375 6.203125 34.421875 6.203125 
Q 39.59375 6.203125 44.453125 7.46875 
Q 49.3125 8.734375 54.109375 11.28125 
L 54.109375 2.78125 
Q 49.265625 0.734375 44.1875 -0.34375 
Q 39.109375 -1.421875 33.890625 -1.421875 
Q 20.796875 -1.421875 13.15625 6.1875 
Q 5.515625 13.8125 5.515625 26.8125 
Q 5.515625 40.234375 12.765625 48.109375 
Q 20.015625 56 32.328125 56 
Q 43.359375 56 49.78125 48.890625 
Q 56.203125 41.796875 56.203125 29.59375 
z
M 47.21875 32.234375 
Q 47.125 39.59375 43.09375 43.984375 
Q 39.0625 48.390625 32.421875 48.390625 
Q 24.90625 48.390625 20.390625 44.140625 
Q 15.875 39.890625 15.1875 32.171875 
z
" id="DejaVuSans-101"/>
      <path d="M 41.109375 46.296875 
Q 39.59375 47.171875 37.8125 47.578125 
Q 36.03125 48 33.890625 48 
Q 26.265625 48 22.1875 43.046875 
Q 18.109375 38.09375 18.109375 28.8125 
L 18.109375 0 
L 9.078125 0 
L 9.078125 54.6875 
L 18.109375 54.6875 
L 18.109375 46.1875 
Q 20.953125 51.171875 25.484375 53.578125 
Q 30.03125 56 36.53125 56 
Q 37.453125 56 38.578125 55.875 
Q 39.703125 55.765625 41.0625 55.515625 
z
" id="DejaVuSans-114"/>
      <path d="M 9.421875 54.6875 
L 18.40625 54.6875 
L 18.40625 0 
L 9.421875 0 
z
M 9.421875 75.984375 
L 18.40625 75.984375 
L 18.40625 64.59375 
L 9.421875 64.59375 
z
" id="DejaVuSans-105"/>
      <path d="M 54.890625 33.015625 
L 54.890625 0 
L 45.90625 0 
L 45.90625 32.71875 
Q 45.90625 40.484375 42.875 44.328125 
Q 39.84375 48.1875 33.796875 48.1875 
Q 26.515625 48.1875 22.3125 43.546875 
Q 18.109375 38.921875 18.109375 30.90625 
L 18.109375 0 
L 9.078125 0 
L 9.078125 54.6875 
L 18.109375 54.6875 
L 18.109375 46.1875 
Q 21.34375 51.125 25.703125 53.5625 
Q 30.078125 56 35.796875 56 
Q 45.21875 56 50.046875 50.171875 
Q 54.890625 44.34375 54.890625 33.015625 
z
" id="DejaVuSans-110"/>
      <path d="M 45.40625 27.984375 
Q 45.40625 37.75 41.375 43.109375 
Q 37.359375 48.484375 30.078125 48.484375 
Q 22.859375 48.484375 18.828125 43.109375 
Q 14.796875 37.75 14.796875 27.984375 
Q 14.796875 18.265625 18.828125 12.890625 
Q 22.859375 7.515625 30.078125 7.515625 
Q 37.359375 7.515625 41.375 12.890625 
Q 45.40625 18.265625 45.40625 27.984375 
z
M 54.390625 6.78125 
Q 54.390625 -7.171875 48.1875 -13.984375 
Q 42 -20.796875 29.203125 -20.796875 
Q 24.46875 -20.796875 20.265625 -20.09375 
Q 16.0625 -19.390625 12.109375 -17.921875 
L 12.109375 -9.1875 
Q 16.0625 -11.328125 19.921875 -12.34375 
Q 23.78125 -13.375 27.78125 -13.375 
Q 36.625 -13.375 41.015625 -8.765625 
Q 45.40625 -4.15625 45.40625 5.171875 
L 45.40625 9.625 
Q 42.625 4.78125 38.28125 2.390625 
Q 33.9375 0 27.875 0 
Q 17.828125 0 11.671875 7.65625 
Q 5.515625 15.328125 5.515625 27.984375 
Q 5.515625 40.671875 11.671875 48.328125 
Q 17.828125 56 27.875 56 
Q 33.9375 56 38.28125 53.609375 
Q 42.625 51.21875 45.40625 46.390625 
L 45.40625 54.6875 
L 54.390625 54.6875 
z
" id="DejaVuSans-103"/>
      <path id="DejaVuSans-32"/>
      <path d="M 9.421875 75.984375 
L 18.40625 75.984375 
L 18.40625 0 
L 9.421875 0 
z
" id="DejaVuSans-108"/>
      <path d="M 45.515625 34.671875 
L 14.453125 34.671875 
Q 12.359375 20.0625 14.5 13.875 
Q 17.1875 6.25 24.46875 6.25 
Q 31.78125 6.25 37.359375 13.921875 
Q 42.234375 20.65625 45.515625 34.671875 
z
M 47.015625 42.96875 
Q 48.34375 56.84375 46.625 61.71875 
Q 43.953125 69.4375 36.765625 69.4375 
Q 29.296875 69.4375 23.828125 61.8125 
Q 19.53125 55.671875 16.15625 42.96875 
z
M 38.1875 76.765625 
Q 49.90625 76.765625 54.59375 66.40625 
Q 59.28125 56.109375 55.71875 37.84375 
Q 52.203125 19.625 43.453125 9.28125 
Q 34.765625 -1.125 23.046875 -1.125 
Q 11.28125 -1.125 6.640625 9.28125 
Q 2 19.625 5.515625 37.84375 
Q 9.078125 56.109375 17.71875 66.40625 
Q 26.421875 76.765625 38.1875 76.765625 
z
" id="DejaVuSans-Oblique-952"/>
      <path d="M 31 75.875 
Q 24.46875 64.65625 21.28125 53.65625 
Q 18.109375 42.671875 18.109375 31.390625 
Q 18.109375 20.125 21.3125 9.0625 
Q 24.515625 -2 31 -13.1875 
L 23.1875 -13.1875 
Q 15.875 -1.703125 12.234375 9.375 
Q 8.59375 20.453125 8.59375 31.390625 
Q 8.59375 42.28125 12.203125 53.3125 
Q 15.828125 64.359375 23.1875 75.875 
z
" id="DejaVuSans-40"/>
      <path d="M 25.390625 -1.421875 
Q 15.765625 -1.421875 10.171875 4.515625 
Q 4.59375 10.453125 4.59375 20.703125 
Q 4.59375 26.65625 6.515625 32.828125 
Q 8.453125 39.015625 11.53125 43.21875 
Q 16.359375 49.75 22.3125 52.875 
Q 28.265625 56 35.796875 56 
Q 45.125 56 50.859375 50.1875 
Q 56.59375 44.390625 56.59375 35.015625 
Q 56.59375 28.515625 54.6875 22.0625 
Q 52.78125 15.625 49.703125 11.375 
Q 44.921875 4.828125 38.96875 1.703125 
Q 33.015625 -1.421875 25.390625 -1.421875 
z
M 13.921875 21 
Q 13.921875 13.578125 17.015625 9.890625 
Q 20.125 6.203125 26.421875 6.203125 
Q 35.453125 6.203125 41.375 14.078125 
Q 47.3125 21.96875 47.3125 34.078125 
Q 47.3125 41.15625 44.140625 44.765625 
Q 40.96875 48.390625 34.8125 48.390625 
Q 29.734375 48.390625 25.78125 46.015625 
Q 21.828125 43.65625 18.703125 38.8125 
Q 16.40625 35.203125 15.15625 30.5625 
Q 13.921875 25.921875 13.921875 21 
z
" id="DejaVuSans-Oblique-111"/>
      <path d="M 8.015625 75.875 
L 15.828125 75.875 
Q 23.140625 64.359375 26.78125 53.3125 
Q 30.421875 42.28125 30.421875 31.390625 
Q 30.421875 20.453125 26.78125 9.375 
Q 23.140625 -1.703125 15.828125 -13.1875 
L 8.015625 -13.1875 
Q 14.5 -2 17.703125 9.0625 
Q 20.90625 20.125 20.90625 31.390625 
Q 20.90625 42.671875 17.703125 53.65625 
Q 14.5 64.65625 8.015625 75.875 
z
" id="DejaVuSans-41"/>
     </defs>
     <g transform="translate(312.1 541.118125)scale(0.1 -0.1)">
      <use transform="translate(0 0.51875)" xlink:href="#DejaVuSans-83"/>
      <use transform="translate(63.476562 0.51875)" xlink:href="#DejaVuSans-99"/>
      <use transform="translate(118.457031 0.51875)" xlink:href="#DejaVuSans-97"/>
      <use transform="translate(179.736328 0.51875)" xlink:href="#DejaVuSans-116"/>
      <use transform="translate(218.945312 0.51875)" xlink:href="#DejaVuSans-116"/>
      <use transform="translate(258.154297 0.51875)" xlink:href="#DejaVuSans-101"/>
      <use transform="translate(319.677734 0.51875)" xlink:href="#DejaVuSans-114"/>
      <use transform="translate(360.791016 0.51875)" xlink:href="#DejaVuSans-105"/>
      <use transform="translate(388.574219 0.51875)" xlink:href="#DejaVuSans-110"/>
      <use transform="translate(451.953125 0.51875)" xlink:href="#DejaVuSans-103"/>
      <use transform="translate(515.429688 0.51875)" xlink:href="#DejaVuSans-32"/>
      <use transform="translate(547.216797 0.51875)" xlink:href="#DejaVuSans-97"/>
      <use transform="translate(608.496094 0.51875)" xlink:href="#DejaVuSans-110"/>
      <use transform="translate(671.875 0.51875)" xlink:href="#DejaVuSans-103"/>
      <use transform="translate(735.351562 0.51875)" xlink:href="#DejaVuSans-108"/>
      <use transform="translate(763.134766 0.51875)" xlink:href="#DejaVuSans-101"/>
      <use transform="translate(824.658203 0.51875)" xlink:href="#DejaVuSans-32"/>
      <use transform="translate(856.445312 0.51875)" xlink:href="#DejaVuSans-50"/>
      <use transform="translate(920.068359 0.51875)" xlink:href="#DejaVuSans-Oblique-952"/>
      <use transform="translate(981.25 0.51875)" xlink:href="#DejaVuSans-32"/>
      <use transform="translate(1013.037109 0.51875)" xlink:href="#DejaVuSans-40"/>
      <use transform="translate(1053.007812 38.8)scale(0.7)" xlink:href="#DejaVuSans-Oblique-111"/>
      <use transform="translate(1098.569336 0.51875)" xlink:href="#DejaVuSans-41"/>
     </g>
    </g>
   </g>
   <g id="matplotlib.axis_2">
    <g id="ytick_1">
     <g id="line2d_7">
      <defs>
       <path d="M 0 0 
L -3.5 0 
" id="mff4c5278f4" style="stroke:#000000;stroke-width:0.8;"/>
      </defs>
      <g>
       <use style="stroke:#000000;stroke-width:0.8;" x="90" xlink:href="#mff4c5278f4" y="493.154702"/>
      </g>
     </g>
     <g id="text_8">
      <!-- 0 -->
      <g transform="translate(76.6375 496.953921)scale(0.1 -0.1)">
       <use xlink:href="#DejaVuSans-48"/>
      </g>
     </g>
    </g>
    <g id="ytick_2">
     <g id="line2d_8">
      <g>
       <use style="stroke:#000000;stroke-width:0.8;" x="90" xlink:href="#mff4c5278f4" y="397.600847"/>
      </g>
     </g>
     <g id="text_9">
      <!-- 2 -->
      <g transform="translate(76.6375 401.400066)scale(0.1 -0.1)">
       <use xlink:href="#DejaVuSans-50"/>
      </g>
     </g>
    </g>
    <g id="ytick_3">
     <g id="line2d_9">
      <g>
       <use style="stroke:#000000;stroke-width:0.8;" x="90" xlink:href="#mff4c5278f4" y="302.046992"/>
      </g>
     </g>
     <g id="text_10">
      <!-- 4 -->
      <g transform="translate(76.6375 305.846211)scale(0.1 -0.1)">
       <use xlink:href="#DejaVuSans-52"/>
      </g>
     </g>
    </g>
    <g id="ytick_4">
     <g id="line2d_10">
      <g>
       <use style="stroke:#000000;stroke-width:0.8;" x="90" xlink:href="#mff4c5278f4" y="206.493137"/>
      </g>
     </g>
     <g id="text_11">
      <!-- 6 -->
      <g transform="translate(76.6375 210.292356)scale(0.1 -0.1)">
       <use xlink:href="#DejaVuSans-54"/>
      </g>
     </g>
    </g>
    <g id="ytick_5">
     <g id="line2d_11">
      <g>
       <use style="stroke:#000000;stroke-width:0.8;" x="90" xlink:href="#mff4c5278f4" y="110.939282"/>
      </g>
     </g>
     <g id="text_12">
      <!-- 8 -->
      <defs>
       <path d="M 31.78125 34.625 
Q 24.75 34.625 20.71875 30.859375 
Q 16.703125 27.09375 16.703125 20.515625 
Q 16.703125 13.921875 20.71875 10.15625 
Q 24.75 6.390625 31.78125 6.390625 
Q 38.8125 6.390625 42.859375 10.171875 
Q 46.921875 13.96875 46.921875 20.515625 
Q 46.921875 27.09375 42.890625 30.859375 
Q 38.875 34.625 31.78125 34.625 
z
M 21.921875 38.8125 
Q 15.578125 40.375 12.03125 44.71875 
Q 8.5 49.078125 8.5 55.328125 
Q 8.5 64.0625 14.71875 69.140625 
Q 20.953125 74.21875 31.78125 74.21875 
Q 42.671875 74.21875 48.875 69.140625 
Q 55.078125 64.0625 55.078125 55.328125 
Q 55.078125 49.078125 51.53125 44.71875 
Q 48 40.375 41.703125 38.8125 
Q 48.828125 37.15625 52.796875 32.3125 
Q 56.78125 27.484375 56.78125 20.515625 
Q 56.78125 9.90625 50.3125 4.234375 
Q 43.84375 -1.421875 31.78125 -1.421875 
Q 19.734375 -1.421875 13.25 4.234375 
Q 6.78125 9.90625 6.78125 20.515625 
Q 6.78125 27.484375 10.78125 32.3125 
Q 14.796875 37.15625 21.921875 38.8125 
z
M 18.3125 54.390625 
Q 18.3125 48.734375 21.84375 45.5625 
Q 25.390625 42.390625 31.78125 42.390625 
Q 38.140625 42.390625 41.71875 45.5625 
Q 45.3125 48.734375 45.3125 54.390625 
Q 45.3125 60.0625 41.71875 63.234375 
Q 38.140625 66.40625 31.78125 66.40625 
Q 25.390625 66.40625 21.84375 63.234375 
Q 18.3125 60.0625 18.3125 54.390625 
z
" id="DejaVuSans-56"/>
      </defs>
      <g transform="translate(76.6375 114.738501)scale(0.1 -0.1)">
       <use xlink:href="#DejaVuSans-56"/>
      </g>
     </g>
    </g>
    <g id="text_13">
     <!-- Intensity -->
     <defs>
      <path d="M 9.8125 72.90625 
L 19.671875 72.90625 
L 19.671875 0 
L 9.8125 0 
z
" id="DejaVuSans-73"/>
      <path d="M 44.28125 53.078125 
L 44.28125 44.578125 
Q 40.484375 46.53125 36.375 47.5 
Q 32.28125 48.484375 27.875 48.484375 
Q 21.1875 48.484375 17.84375 46.4375 
Q 14.5 44.390625 14.5 40.28125 
Q 14.5 37.15625 16.890625 35.375 
Q 19.28125 33.59375 26.515625 31.984375 
L 29.59375 31.296875 
Q 39.15625 29.25 43.1875 25.515625 
Q 47.21875 21.78125 47.21875 15.09375 
Q 47.21875 7.46875 41.1875 3.015625 
Q 35.15625 -1.421875 24.609375 -1.421875 
Q 20.21875 -1.421875 15.453125 -0.5625 
Q 10.6875 0.296875 5.421875 2 
L 5.421875 11.28125 
Q 10.40625 8.6875 15.234375 7.390625 
Q 20.0625 6.109375 24.8125 6.109375 
Q 31.15625 6.109375 34.5625 8.28125 
Q 37.984375 10.453125 37.984375 14.40625 
Q 37.984375 18.0625 35.515625 20.015625 
Q 33.0625 21.96875 24.703125 23.78125 
L 21.578125 24.515625 
Q 13.234375 26.265625 9.515625 29.90625 
Q 5.8125 33.546875 5.8125 39.890625 
Q 5.8125 47.609375 11.28125 51.796875 
Q 16.75 56 26.8125 56 
Q 31.78125 56 36.171875 55.265625 
Q 40.578125 54.546875 44.28125 53.078125 
z
" id="DejaVuSans-115"/>
      <path d="M 32.171875 -5.078125 
Q 28.375 -14.84375 24.75 -17.8125 
Q 21.140625 -20.796875 15.09375 -20.796875 
L 7.90625 -20.796875 
L 7.90625 -13.28125 
L 13.1875 -13.28125 
Q 16.890625 -13.28125 18.9375 -11.515625 
Q 21 -9.765625 23.484375 -3.21875 
L 25.09375 0.875 
L 2.984375 54.6875 
L 12.5 54.6875 
L 29.59375 11.921875 
L 46.6875 54.6875 
L 56.203125 54.6875 
z
" id="DejaVuSans-121"/>
     </defs>
     <g transform="translate(70.557812 312.6425)rotate(-90)scale(0.1 -0.1)">
      <use xlink:href="#DejaVuSans-73"/>
      <use x="29.492188" xlink:href="#DejaVuSans-110"/>
      <use x="92.871094" xlink:href="#DejaVuSans-116"/>
      <use x="132.080078" xlink:href="#DejaVuSans-101"/>
      <use x="193.603516" xlink:href="#DejaVuSans-110"/>
      <use x="256.982422" xlink:href="#DejaVuSans-115"/>
      <use x="309.082031" xlink:href="#DejaVuSans-105"/>
      <use x="336.865234" xlink:href="#DejaVuSans-116"/>
      <use x="376.074219" xlink:href="#DejaVuSans-121"/>
     </g>
    </g>
    <g id="text_14">
     <!-- 1e10 -->
     <g transform="translate(90 66.12)scale(0.1 -0.1)">
      <use xlink:href="#DejaVuSans-49"/>
      <use x="63.623047" xlink:href="#DejaVuSans-101"/>
      <use x="125.146484" xlink:href="#DejaVuSans-49"/>
      <use x="188.769531" xlink:href="#DejaVuSans-48"/>
     </g>
    </g>
   </g>
   <g id="line2d_12">
    <path clip-path="url(#p2dbbdcc476)" d="M 115.363636 477.592035 
L 115.46371 477.484072 
L 115.663857 477.744256 
L 115.964078 477.637681 
L 116.164225 477.76134 
L 116.264298 477.748946 
L 116.464445 478.120199 
L 116.664592 478.67532 
L 117.665328 479.481768 
L 118.365842 479.653866 
L 118.666063 479.589692 
L 118.966283 479.719375 
L 119.066357 479.659355 
L 119.266504 479.73031 
L 119.466651 479.708709 
L 119.666798 479.73082 
L 119.967019 479.725094 
L 120.56746 479.820386 
L 120.767607 480.064911 
L 122.468857 480.305189 
L 122.869151 480.274004 
L 123.769813 480.331056 
L 124.770548 480.558145 
L 125.070769 480.612701 
L 125.571136 480.764758 
L 126.772019 480.861344 
L 127.172313 480.882849 
L 127.772754 480.952763 
L 128.072975 480.930873 
L 128.573342 480.979643 
L 129.07371 481.144429 
L 130.77496 481.381755 
L 131.375401 481.428344 
L 132.776431 481.652627 
L 133.677092 481.960701 
L 134.277534 482.063421 
L 134.677828 482.149093 
L 134.877975 482.139262 
L 135.378343 482.204346 
L 135.87871 482.254249 
L 136.979519 482.566464 
L 137.27974 482.660853 
L 139.081063 482.924753 
L 139.681504 483.000087 
L 140.081798 483.072643 
L 140.382019 483.138795 
L 140.882387 483.219516 
L 141.082534 483.286322 
L 141.582901 483.44565 
L 142.183343 483.514718 
L 142.983931 483.603814 
L 144.785254 483.775408 
L 145.085475 483.782782 
L 145.485769 483.973135 
L 146.586578 484.03972 
L 147.086946 484.080199 
L 147.287093 484.091087 
L 148.087681 484.175124 
L 148.588049 484.261188 
L 150.689593 484.661731 
L 151.590254 484.707901 
L 152.190696 484.772496 
L 153.191431 484.892419 
L 153.391578 484.912655 
L 153.591725 485.003131 
L 154.29224 485.0631 
L 154.692534 485.144971 
L 154.892681 485.100647 
L 155.493122 485.158514 
L 155.793343 485.151929 
L 156.493857 485.237481 
L 157.394519 485.287844 
L 157.594666 485.409754 
L 158.295181 485.434724 
L 158.895622 485.489385 
L 159.996431 485.521555 
L 169.203196 486.038491 
L 169.403343 485.965088 
L 169.60349 485.776507 
L 169.803637 484.986931 
L 169.903711 482.680608 
L 170.003784 432.148722 
L 170.103858 245.952329 
L 170.404078 484.391307 
L 170.604225 485.82769 
L 170.804372 486.138472 
L 171.204667 486.343246 
L 172.905917 486.518699 
L 173.806578 486.619778 
L 174.306946 486.691116 
L 184.91474 487.630602 
L 185.815402 487.666952 
L 186.215696 487.722524 
L 188.717534 487.890054 
L 189.217902 487.958 
L 190.218637 488.014854 
L 191.819814 488.131466 
L 192.220108 488.128361 
L 192.720476 488.191199 
L 193.821284 488.2196 
L 194.421726 488.303368 
L 194.922093 488.343916 
L 195.522534 488.371273 
L 195.922829 488.368937 
L 196.923564 488.49402 
L 205.629961 488.863032 
L 205.930182 488.501584 
L 206.130329 487.76721 
L 206.230402 486.756155 
L 206.330476 482.788927 
L 206.430549 403.352268 
L 206.530623 89.28 
L 206.630696 194.819661 
L 206.830843 485.211796 
L 207.030991 488.086144 
L 207.331211 488.732013 
L 207.731505 488.967309 
L 209.332682 489.187617 
L 209.632902 489.236613 
L 210.633638 489.213401 
L 212.835255 489.414196 
L 213.435696 489.483698 
L 214.536505 489.471445 
L 215.036873 489.51281 
L 216.638049 489.64269 
L 217.638785 489.709876 
L 218.139152 489.702948 
L 218.739594 489.680374 
L 219.340035 489.751984 
L 219.940476 489.762444 
L 220.841138 489.840796 
L 222.242167 489.872232 
L 224.243638 489.956104 
L 226.145035 490.039215 
L 227.245844 490.050598 
L 227.946358 490.073711 
L 233.250256 490.216151 
L 233.95077 490.092008 
L 234.150917 489.886245 
L 234.250991 489.599358 
L 234.351064 488.841835 
L 234.451138 482.521101 
L 234.651285 295.355964 
L 234.851432 485.622463 
L 235.051579 489.666775 
L 235.3518 490.153673 
L 235.752094 490.26621 
L 238.654226 490.462045 
L 239.254667 490.451039 
L 240.055256 490.48807 
L 241.656432 490.551672 
L 242.757241 490.578404 
L 244.058197 490.613821 
L 255.966947 490.953287 
L 256.667462 490.910527 
L 257.46805 490.939994 
L 257.968418 490.770813 
L 258.068491 490.579944 
L 258.168565 489.972074 
L 258.268638 479.460464 
L 258.468785 406.936672 
L 258.668932 489.929077 
L 258.869079 490.794058 
L 259.269374 490.976256 
L 260.069962 491.001573 
L 260.970624 491.027616 
L 262.972094 491.158776 
L 264.172977 491.104408 
L 266.674815 491.252092 
L 267.37533 491.222451 
L 268.275991 491.17959 
L 269.476874 491.270937 
L 271.878638 491.281087 
L 272.379006 491.289696 
L 273.479815 491.348256 
L 275.581359 491.358778 
L 278.583565 491.300563 
L 278.883786 491.082161 
L 278.983859 490.91044 
L 279.083933 490.496143 
L 279.184006 489.340587 
L 279.28408 476.514689 
L 279.484227 264.320708 
L 279.684374 486.965126 
L 279.884521 490.722721 
L 280.184741 491.244616 
L 280.685109 491.396317 
L 292.093492 491.657272 
L 293.094227 491.653555 
L 294.795477 491.687876 
L 297.297315 491.665861 
L 298.097903 491.406043 
L 298.197977 491.174426 
L 298.298051 490.57004 
L 298.398124 484.12279 
L 298.598271 370.414621 
L 298.798418 488.971652 
L 298.998565 491.343327 
L 299.298786 491.660678 
L 299.999301 491.733233 
L 301.300256 491.737657 
L 303.501874 491.812904 
L 304.702757 491.786668 
L 307.704962 491.855519 
L 308.20533 491.841584 
L 311.30761 491.882937 
L 324.91761 491.939503 
L 326.118492 491.94915 
L 328.32011 492.010625 
L 329.020624 491.958012 
L 332.122904 491.93347 
L 332.323051 491.852844 
L 332.423125 491.712922 
L 332.523198 491.029211 
L 332.623272 480.329538 
L 332.723345 446.065378 
L 332.823419 458.119565 
L 333.023566 491.503184 
L 333.223713 491.849238 
L 333.72408 491.95435 
L 334.324522 491.964242 
L 335.025036 492.003594 
L 339.328198 492.03873 
L 339.928639 492.026272 
L 340.729228 492.031805 
L 342.530551 492.006838 
L 343.531286 492.03107 
L 346.933786 492.004586 
L 347.634301 491.876118 
L 347.834448 491.699027 
L 347.934522 491.473207 
L 348.034595 490.928399 
L 348.134669 487.095397 
L 348.334816 347.259548 
L 348.534963 486.115217 
L 348.73511 491.557553 
L 349.035331 491.913488 
L 349.435625 492.003911 
L 353.53864 492.091852 
L 354.239154 492.07181 
L 357.341434 492.121505 
L 359.242831 492.093642 
L 362.34511 492.012865 
L 362.645331 491.865061 
L 362.745404 491.703769 
L 362.845478 491.309792 
L 362.945551 488.129638 
L 363.145698 390.158631 
L 363.345846 488.220874 
L 363.545993 491.736297 
L 363.846213 492.019934 
L 364.446654 492.108474 
L 365.247243 492.154738 
L 365.947757 492.126637 
L 366.748346 492.111817 
L 376.455478 492.127618 
L 376.855772 491.972815 
L 376.955846 491.804916 
L 377.055919 491.163113 
L 377.155993 480.113604 
L 377.256066 435.510106 
L 377.35614 442.830636 
L 377.556287 491.422434 
L 377.756434 492.011824 
L 378.156728 492.134913 
L 379.958052 492.187329 
L 381.859449 492.20748 
L 382.960258 492.198247 
L 390.565846 492.154445 
L 390.665919 491.923 
L 390.765993 488.74358 
L 390.866066 481.476492 
L 391.166287 492.115044 
L 391.466508 492.203685 
L 398.471655 492.25468 
L 399.072096 492.220531 
L 400.172905 492.184478 
L 401.273714 492.199268 
L 402.87489 492.186643 
L 403.575405 492 
L 403.675478 491.841077 
L 403.775552 490.572214 
L 403.975699 452.476318 
L 404.27592 491.853521 
L 404.476067 492.086951 
L 404.976434 492.164879 
L 410.280331 492.219872 
L 412.281802 492.122821 
L 415.484155 492.076522 
L 416.084596 491.916989 
L 416.284743 491.602368 
L 416.384817 490.882978 
L 416.48489 480.907725 
L 416.685037 414.499484 
L 416.885184 490.43476 
L 417.085332 491.829132 
L 417.385552 492.046487 
L 418.486361 492.147627 
L 440.402464 492.062457 
L 440.602611 491.849576 
L 440.702685 489.194303 
L 440.902832 475.838148 
L 441.102979 491.858203 
L 441.303126 492.080859 
L 442.804229 492.161516 
L 451.810847 492.004472 
L 452.010994 491.870388 
L 452.111067 491.679751 
L 452.211141 491.06734 
L 452.311214 483.558681 
L 452.511361 410.467896 
L 452.711508 490.088114 
L 452.911656 491.81139 
L 453.211876 492.02621 
L 453.812317 492.124018 
L 454.612906 492.148487 
L 456.114009 492.151832 
L 457.01467 492.128433 
L 458.115479 492.164357 
L 459.616582 492.171302 
L 461.217759 492.130684 
L 462.818935 492.12776 
L 463.319303 492.003399 
L 463.419376 491.864674 
L 463.51945 491.519491 
L 463.619523 489.021156 
L 463.81967 421.107763 
L 464.119891 491.558226 
L 464.320038 491.975195 
L 464.720332 492.117423 
L 474.527538 492.076489 
L 474.627612 491.909233 
L 474.727685 490.386911 
L 474.927832 465.165893 
L 475.127979 491.134168 
L 475.328126 492.116378 
L 475.828494 492.188147 
L 478.130185 492.202353 
L 483.133862 492.211941 
L 484.034524 492.211503 
L 485.235406 492.110876 
L 485.435553 491.950298 
L 485.535627 491.489816 
L 485.6357 484.854731 
L 485.735774 460.994414 
L 485.835847 462.717081 
L 486.035994 491.648346 
L 486.236141 492.091832 
L 486.736509 492.19963 
L 491.540038 492.228503 
L 492.240553 492.241661 
L 492.941068 492.218552 
L 495.643053 492.163467 
L 495.943274 492.020849 
L 496.043347 491.852459 
L 496.143421 491.340401 
L 496.243494 486.259334 
L 496.443641 421.878077 
L 496.643788 489.559195 
L 496.843936 491.934987 
L 497.144156 492.144321 
L 498.345038 492.219145 
L 499.545921 492.245534 
L 504.549597 492.262952 
L 505.450259 492.237829 
L 506.350921 492.16398 
L 506.551068 491.979585 
L 506.651142 491.297739 
L 506.751215 483.291706 
L 506.851289 463.192363 
L 506.951362 468.704201 
L 507.151509 491.768459 
L 507.351656 492.151925 
L 507.75195 492.246528 
L 516.658495 492.297319 
L 517.258936 492.286197 
L 518.559892 492.276153 
L 519.560627 492.290784 
L 521.06173 492.295946 
L 524.46423 492.29572 
L 525.064671 492.304403 
L 526.16548 492.266759 
L 526.865995 492.190059 
L 526.966068 492.08171 
L 527.066142 491.079027 
L 527.266289 475.483018 
L 527.466436 491.135962 
L 527.666583 492.225137 
L 528.367098 492.301325 
L 529.968274 492.292423 
L 536.873348 492.183628 
L 536.973421 491.753984 
L 537.073495 487.934872 
L 537.173568 477.053742 
L 537.273642 478.976023 
L 537.473789 492.017337 
L 537.673936 492.244738 
L 538.474524 492.282563 
L 539.375186 492.287465 
L 541.17651 492.320774 
L 546.480407 492.115829 
L 546.680554 491.773998 
L 546.780627 490.614375 
L 546.880701 477.288684 
L 546.980774 435.978313 
L 547.080848 439.283882 
L 547.280995 491.165137 
L 547.481142 492.045769 
L 547.781363 492.216921 
L 548.581951 492.286865 
L 553.38548 492.322061 
L 555.286877 492.288026 
L 556.287613 492.164719 
L 556.387686 492.002032 
L 556.48776 490.793557 
L 556.687907 464.197076 
L 556.988127 491.997797 
L 557.188275 492.237195 
L 557.988863 492.305628 
L 559.790186 492.306582 
L 560.690848 492.32301 
L 565.494378 492.347505 
L 566.895407 492.3191 
L 575.20151 492.133875 
L 575.301584 492.020498 
L 575.401657 491.632128 
L 575.501731 488.019331 
L 575.701878 444.332126 
L 575.902025 489.516748 
L 576.102172 492.088083 
L 576.402392 492.245789 
L 577.102907 492.309059 
L 578.503937 492.326559 
L 582.206657 492.340117 
L 584.608422 492.242863 
L 584.708495 492.146573 
L 584.808569 491.338852 
L 585.008716 475.41346 
L 585.308937 492.113549 
L 585.509084 492.294075 
L 586.109525 492.354156 
L 587.410481 492.342356 
L 590.012393 492.368488 
L 592.113937 492.352895 
L 595.61651 492.364782 
L 597.818128 492.364287 
L 599.619452 492.360048 
L 601.220628 492.362002 
L 602.721731 492.361298 
L 603.122025 492.18111 
L 603.222099 490.932923 
L 603.422246 484.177475 
L 603.622393 491.890413 
L 603.82254 492.316536 
L 604.623128 492.354394 
L 606.324378 492.379484 
L 607.425187 492.368471 
L 608.626069 492.370342 
L 611.628275 492.358038 
L 612.028569 492.206652 
L 612.128643 492.000815 
L 612.228716 490.301536 
L 612.428864 462.502838 
L 612.729084 491.951876 
L 612.929231 492.304272 
L 613.429599 492.392323 
L 615.631216 492.42403 
L 617.232393 492.44895 
L 620.134525 492.434182 
L 620.634893 492.408297 
L 620.935114 492.32445 
L 621.035187 492.214409 
L 621.135261 491.794885 
L 621.235334 487.724001 
L 621.435481 464.754381 
L 621.635628 491.074941 
L 621.835775 492.31332 
L 622.135996 492.431692 
L 622.636364 492.466186 
L 622.636364 492.466186 
" style="fill:none;stroke:#1f77b4;stroke-linecap:square;stroke-width:1.5;"/>
   </g>
   <g id="line2d_13">
    <path clip-path="url(#p2dbbdcc476)" d="M 115.363636 477.672407 
L 115.46371 477.666852 
L 115.563783 477.78999 
L 115.76393 477.638431 
L 115.864004 477.750077 
L 115.964078 477.652147 
L 116.464445 477.981402 
L 116.764666 478.770135 
L 117.765401 479.493978 
L 118.065622 479.619466 
L 118.565989 479.617957 
L 118.86621 479.658952 
L 119.066357 479.696669 
L 119.366578 479.69599 
L 119.566725 479.663208 
L 119.866945 479.762523 
L 119.967019 479.687139 
L 120.267239 479.791487 
L 120.56746 479.761967 
L 120.767607 480.074974 
L 121.668269 480.213827 
L 123.069298 480.290392 
L 123.269445 480.305313 
L 123.869886 480.347575 
L 124.070034 480.38048 
L 124.370254 480.378639 
L 124.670475 480.443422 
L 124.970695 480.618967 
L 125.370989 480.73693 
L 128.773489 481.003163 
L 129.07371 481.152215 
L 131.775695 481.449132 
L 132.17599 481.538885 
L 132.576284 481.661378 
L 132.776431 481.654715 
L 133.176725 481.870956 
L 133.476945 481.885013 
L 134.17746 482.060472 
L 134.577754 482.106493 
L 135.978784 482.279094 
L 136.379078 482.384105 
L 137.079593 482.572692 
L 137.57996 482.746649 
L 138.080328 482.835422 
L 139.081063 482.936224 
L 139.381284 482.970195 
L 140.782313 483.167264 
L 141.983196 483.495105 
L 142.38349 483.521011 
L 143.184078 483.631021 
L 145.085475 483.785331 
L 145.285622 483.90587 
L 145.685916 483.962763 
L 146.886799 484.08761 
L 147.086946 484.091499 
L 147.587313 484.115847 
L 148.287828 484.186562 
L 151.089887 484.668826 
L 153.491652 484.959027 
L 154.192166 485.079073 
L 154.59246 485.071276 
L 154.992755 485.151473 
L 155.793343 485.142838 
L 156.493857 485.218586 
L 157.494593 485.347917 
L 157.894887 485.436306 
L 158.795549 485.459495 
L 158.995696 485.487417 
L 164.699887 485.826529 
L 165.400402 485.859849 
L 166.100916 485.964213 
L 169.303269 486.029716 
L 169.503416 485.862714 
L 169.60349 485.698174 
L 169.703564 485.187532 
L 169.803637 479.027819 
L 170.103858 391.33539 
L 170.203931 388.838503 
L 170.304005 399.229298 
L 170.604225 485.241111 
L 170.804372 486.04607 
L 171.004519 486.249695 
L 174.907387 486.741365 
L 175.607902 486.783621 
L 177.409225 486.90304 
L 179.410696 487.139745 
L 179.81099 487.154411 
L 181.111946 487.255937 
L 182.813196 487.445819 
L 184.114152 487.545601 
L 184.91474 487.602326 
L 185.214961 487.632484 
L 186.31577 487.73026 
L 187.116358 487.795538 
L 187.416578 487.808955 
L 188.117093 487.857123 
L 188.717534 487.885094 
L 189.918417 487.978392 
L 190.518858 488.031713 
L 190.919152 488.090826 
L 191.319446 488.057657 
L 193.521064 488.246085 
L 193.921358 488.226869 
L 195.12224 488.369936 
L 195.722682 488.362323 
L 196.223049 488.426328 
L 198.22452 488.516403 
L 199.425402 488.606967 
L 203.62849 488.837655 
L 204.429079 488.888262 
L 205.32974 488.927162 
L 205.629961 488.856388 
L 205.930182 488.502706 
L 206.130329 487.760508 
L 206.230402 486.556612 
L 206.330476 473.334089 
L 206.630696 211.068921 
L 206.830843 471.995558 
L 207.030991 487.861545 
L 207.231138 488.586259 
L 207.631432 488.930318 
L 209.833049 489.208514 
L 210.833785 489.227711 
L 214.136211 489.492126 
L 214.736652 489.489282 
L 215.837461 489.570486 
L 216.838197 489.636468 
L 218.139152 489.702611 
L 218.939741 489.721734 
L 222.742535 489.887977 
L 222.942682 489.908736 
L 223.242902 489.90576 
L 224.543858 489.973868 
L 225.644667 490.04369 
L 230.648344 490.15265 
L 231.048638 490.143472 
L 231.549006 490.179799 
L 232.24952 490.189297 
L 233.850697 490.156836 
L 234.150917 489.910233 
L 234.250991 489.629092 
L 234.351064 488.891271 
L 234.451138 481.072579 
L 234.651285 320.899226 
L 234.951506 488.734734 
L 235.151653 489.879881 
L 235.451873 490.198148 
L 236.552682 490.347643 
L 237.35327 490.397315 
L 239.05452 490.44999 
L 239.554888 490.459249 
L 240.155329 490.494489 
L 240.655697 490.490306 
L 241.256138 490.52673 
L 241.656432 490.54829 
L 242.557094 490.603107 
L 243.257609 490.579705 
L 256.167094 490.932954 
L 257.968418 490.785302 
L 258.068491 490.603743 
L 258.168565 490.055106 
L 258.268638 481.363857 
L 258.468785 402.307401 
L 258.668932 489.457734 
L 258.869079 490.778437 
L 259.1693 490.93603 
L 259.569594 490.985907 
L 260.570329 491.012094 
L 261.070697 491.039617 
L 267.175182 491.231449 
L 267.975771 491.212173 
L 268.976506 491.224256 
L 269.977241 491.293183 
L 271.378271 491.29228 
L 278.083197 491.37732 
L 278.783712 491.195948 
L 278.983859 490.933758 
L 279.083933 490.551783 
L 279.184006 489.535108 
L 279.28408 479.943342 
L 279.484227 257.997307 
L 279.684374 485.777004 
L 279.884521 490.683991 
L 280.184741 491.240738 
L 280.685109 491.393418 
L 283.687315 491.519498 
L 284.888197 491.528926 
L 288.290697 491.589765 
L 289.591653 491.617889 
L 294.695403 491.679909 
L 296.196506 491.681 
L 297.99783 491.512412 
L 298.197977 491.197745 
L 298.298051 490.65933 
L 298.398124 485.663455 
L 298.598271 367.44812 
L 298.798418 488.489759 
L 298.998565 491.32299 
L 299.298786 491.658095 
L 299.999301 491.733581 
L 301.200183 491.740326 
L 303.401801 491.797225 
L 304.202389 491.803341 
L 305.803565 491.787961 
L 307.604889 491.846227 
L 308.605624 491.825588 
L 309.806507 491.830164 
L 311.807977 491.913174 
L 313.00886 491.860361 
L 313.709374 491.86162 
L 319.213418 491.925946 
L 320.11408 491.957372 
L 322.215624 491.921862 
L 324.817536 491.946232 
L 325.918345 491.933633 
L 332.222977 491.909886 
L 332.423125 491.721427 
L 332.523198 491.079179 
L 332.623272 481.21151 
L 332.723345 447.739319 
L 332.823419 456.415458 
L 333.023566 491.464824 
L 333.223713 491.846846 
L 333.72408 491.954399 
L 334.624742 491.992131 
L 335.225183 492.003062 
L 337.12658 491.994959 
L 338.627683 492.008687 
L 341.129522 492.023765 
L 343.63136 492.031433 
L 346.933786 492.002211 
L 347.634301 491.87913 
L 347.834448 491.702882 
L 347.934522 491.481093 
L 348.034595 490.93237 
L 348.134669 486.891119 
L 348.334816 351.134444 
L 348.635036 490.934449 
L 348.835184 491.743569 
L 349.235478 491.993189 
L 350.036066 492.038459 
L 356.440772 492.108307 
L 358.142022 492.09793 
L 359.943345 492.116423 
L 361.044154 492.144956 
L 361.744669 492.094756 
L 362.445184 491.984022 
L 362.645331 491.87041 
L 362.745404 491.705207 
L 362.845478 491.309762 
L 362.945551 487.733074 
L 363.145698 393.60289 
L 363.445919 491.314952 
L 363.646066 491.887895 
L 364.04636 492.079392 
L 370.85136 492.140716 
L 372.852831 492.173245 
L 373.553346 492.18743 
L 374.654154 492.14762 
L 376.055184 492.164568 
L 376.755699 492.051602 
L 376.955846 491.799343 
L 377.055919 490.997406 
L 377.155993 479.048595 
L 377.256066 438.245183 
L 377.35614 443.418968 
L 377.556287 491.258644 
L 377.756434 492.005042 
L 378.056655 492.12022 
L 379.05739 492.171315 
L 381.05886 492.209079 
L 381.659302 492.218016 
L 384.661508 492.22177 
L 388.164081 492.224641 
L 390.565846 492.147698 
L 390.665919 491.824247 
L 390.866066 482.138475 
L 390.96614 485.462458 
L 391.166287 492.096808 
L 391.366434 492.208766 
L 403.375258 492.107729 
L 403.575405 491.99871 
L 403.675478 491.814646 
L 403.775552 489.918707 
L 403.975699 455.584762 
L 404.27592 491.821287 
L 404.476067 492.079251 
L 404.876361 492.166184 
L 409.579817 492.194231 
L 410.080184 492.220472 
L 411.481214 492.145314 
L 413.282537 492.141605 
L 414.983787 492.126564 
L 415.984523 491.969432 
L 416.18467 491.798141 
L 416.284743 491.572941 
L 416.384817 490.508193 
L 416.48489 477.206771 
L 416.685037 420.318479 
L 416.885184 489.742421 
L 417.085332 491.820956 
L 417.385552 492.047743 
L 418.886655 492.142893 
L 420.087537 492.100029 
L 421.888861 492.159748 
L 427.693126 492.098321 
L 428.793935 492.09324 
L 430.995552 492.134155 
L 432.396582 492.097473 
L 440.402464 492.058468 
L 440.502538 491.996229 
L 440.602611 491.706717 
L 440.702685 488.088493 
L 440.902832 477.29712 
L 441.102979 491.718586 
L 441.303126 492.07729 
L 442.203788 492.151256 
L 451.510626 492.095152 
L 452.010994 491.863144 
L 452.111067 491.638822 
L 452.211141 490.661318 
L 452.311214 479.217412 
L 452.511361 419.330426 
L 452.711508 488.783278 
L 452.911656 491.806199 
L 453.211876 492.028204 
L 454.012464 492.127016 
L 461.017612 492.143011 
L 461.8182 492.135366 
L 462.718862 492.13906 
L 463.319303 491.992446 
L 463.419376 491.845318 
L 463.51945 491.352015 
L 463.619523 486.251572 
L 463.81967 430.468523 
L 464.119891 491.427023 
L 464.320038 491.974532 
L 464.720332 492.113017 
L 469.123567 492.170339 
L 469.824082 492.177143 
L 474.527538 492.064474 
L 474.627612 491.794995 
L 474.727685 489.098586 
L 474.927832 468.779735 
L 475.228053 491.964625 
L 475.4282 492.150954 
L 475.828494 492.18849 
L 478.930774 492.211117 
L 485.335479 492.055672 
L 485.435553 491.917304 
L 485.535627 490.871074 
L 485.735774 463.753423 
L 485.835847 465.976856 
L 486.035994 491.321208 
L 486.236141 492.086492 
L 486.736509 492.19786 
L 489.438494 492.215629 
L 490.038935 492.212918 
L 495.442906 492.191455 
L 495.943274 492.009076 
L 496.043347 491.812224 
L 496.143421 490.873631 
L 496.243494 481.469172 
L 496.443641 433.197985 
L 496.743862 491.563877 
L 496.944009 492.039723 
L 497.344303 492.168172 
L 498.044818 492.206177 
L 501.147097 492.240973 
L 502.247906 492.244911 
L 503.148568 492.259861 
L 506.450994 492.100014 
L 506.551068 491.921141 
L 506.651142 490.387833 
L 506.851289 466.556826 
L 506.951362 471.008907 
L 507.151509 491.490748 
L 507.351656 492.152351 
L 507.952097 492.248578 
L 508.652612 492.254766 
L 512.755627 492.282358 
L 514.156656 492.262367 
L 516.858642 492.280478 
L 523.063201 492.280788 
L 524.764451 492.311806 
L 526.865995 492.181254 
L 526.966068 491.973175 
L 527.066142 489.919946 
L 527.266289 478.331598 
L 527.566509 492.07325 
L 527.766657 492.254831 
L 528.767392 492.313854 
L 536.873348 492.152998 
L 536.973421 491.238713 
L 537.173568 478.913464 
L 537.273642 480.794383 
L 537.473789 491.807875 
L 537.673936 492.245238 
L 538.474524 492.288878 
L 538.974892 492.283096 
L 541.17651 492.324608 
L 542.777686 492.287596 
L 545.179451 492.310148 
L 546.58048 491.992603 
L 546.680554 491.648976 
L 546.780627 488.750203 
L 546.980774 442.043454 
L 547.080848 446.267365 
L 547.280995 490.342165 
L 547.481142 492.048813 
L 547.781363 492.212704 
L 548.381804 492.275785 
L 549.882907 492.302037 
L 550.683495 492.294459 
L 552.785039 492.310134 
L 556.087466 492.240708 
L 556.287613 492.143179 
L 556.387686 491.854767 
L 556.48776 489.16698 
L 556.687907 468.747428 
L 557.088201 492.157844 
L 557.388422 492.281261 
L 557.988863 492.303003 
L 559.289819 492.297568 
L 562.392098 492.320494 
L 565.394304 492.341132 
L 566.795333 492.315238 
L 570.698201 492.333491 
L 575.101437 492.193093 
L 575.301584 491.971122 
L 575.401657 491.156611 
L 575.501731 484.196127 
L 575.701878 452.818779 
L 576.002098 491.680541 
L 576.202245 492.171978 
L 576.802687 492.303554 
L 578.60401 492.331373 
L 581.70629 492.342006 
L 582.807098 492.331504 
L 584.508348 492.285627 
L 584.608422 492.225123 
L 584.708495 492.031611 
L 584.808569 490.299346 
L 585.008716 478.014013 
L 585.40901 492.241662 
L 585.809304 492.334047 
L 587.210334 492.340619 
L 592.714378 492.351 
L 595.116143 492.357525 
L 596.417099 492.349302 
L 598.418569 492.381384 
L 600.019746 492.355171 
L 603.021952 492.275403 
L 603.122025 491.990727 
L 603.422246 485.644377 
L 603.722466 492.244269 
L 604.022687 492.333171 
L 606.624599 492.387697 
L 607.825481 492.373707 
L 611.027834 492.37883 
L 612.028569 492.178839 
L 612.128643 491.746551 
L 612.228716 488.157693 
L 612.428864 467.514314 
L 612.829158 492.210337 
L 613.129378 492.351505 
L 614.130114 492.420821 
L 617.532614 492.443754 
L 618.633422 492.456707 
L 619.434011 492.439032 
L 620.034452 492.430151 
L 620.734967 492.401144 
L 621.035187 492.153748 
L 621.135261 491.106033 
L 621.435481 469.673073 
L 621.735702 492.109398 
L 621.935849 492.37045 
L 622.23607 492.432058 
L 622.636364 492.473608 
L 622.636364 492.473608 
" style="fill:none;stroke:#ff7f0e;stroke-linecap:square;stroke-width:1.5;"/>
   </g>
   <g id="patch_3">
    <path d="M 90 512.64 
L 90 69.12 
" style="fill:none;stroke:#000000;stroke-linecap:square;stroke-linejoin:miter;stroke-width:0.8;"/>
   </g>
   <g id="patch_4">
    <path d="M 648 512.64 
L 648 69.12 
" style="fill:none;stroke:#000000;stroke-linecap:square;stroke-linejoin:miter;stroke-width:0.8;"/>
   </g>
   <g id="patch_5">
    <path d="M 90 512.64 
L 648 512.64 
" style="fill:none;stroke:#000000;stroke-linecap:square;stroke-linejoin:miter;stroke-width:0.8;"/>
   </g>
   <g id="patch_6">
    <path d="M 90 69.12 
L 648 69.12 
" style="fill:none;stroke:#000000;stroke-linecap:square;stroke-linejoin:miter;stroke-width:0.8;"/>
   </g>
   <g id="text_15">
    <!-- Azimuthal integration of 121 images merged -->
    <defs>
     <path d="M 34.1875 63.1875 
L 20.796875 26.90625 
L 47.609375 26.90625 
z
M 28.609375 72.90625 
L 39.796875 72.90625 
L 67.578125 0 
L 57.328125 0 
L 50.6875 18.703125 
L 17.828125 18.703125 
L 11.1875 0 
L 0.78125 0 
z
" id="DejaVuSans-65"/>
     <path d="M 5.515625 54.6875 
L 48.1875 54.6875 
L 48.1875 46.484375 
L 14.40625 7.171875 
L 48.1875 7.171875 
L 48.1875 0 
L 4.296875 0 
L 4.296875 8.203125 
L 38.09375 47.515625 
L 5.515625 47.515625 
z
" id="DejaVuSans-122"/>
     <path d="M 52 44.1875 
Q 55.375 50.25 60.0625 53.125 
Q 64.75 56 71.09375 56 
Q 79.640625 56 84.28125 50.015625 
Q 88.921875 44.046875 88.921875 33.015625 
L 88.921875 0 
L 79.890625 0 
L 79.890625 32.71875 
Q 79.890625 40.578125 77.09375 44.375 
Q 74.3125 48.1875 68.609375 48.1875 
Q 61.625 48.1875 57.5625 43.546875 
Q 53.515625 38.921875 53.515625 30.90625 
L 53.515625 0 
L 44.484375 0 
L 44.484375 32.71875 
Q 44.484375 40.625 41.703125 44.40625 
Q 38.921875 48.1875 33.109375 48.1875 
Q 26.21875 48.1875 22.15625 43.53125 
Q 18.109375 38.875 18.109375 30.90625 
L 18.109375 0 
L 9.078125 0 
L 9.078125 54.6875 
L 18.109375 54.6875 
L 18.109375 46.1875 
Q 21.1875 51.21875 25.484375 53.609375 
Q 29.78125 56 35.6875 56 
Q 41.65625 56 45.828125 52.96875 
Q 50 49.953125 52 44.1875 
z
" id="DejaVuSans-109"/>
     <path d="M 8.5 21.578125 
L 8.5 54.6875 
L 17.484375 54.6875 
L 17.484375 21.921875 
Q 17.484375 14.15625 20.5 10.265625 
Q 23.53125 6.390625 29.59375 6.390625 
Q 36.859375 6.390625 41.078125 11.03125 
Q 45.3125 15.671875 45.3125 23.6875 
L 45.3125 54.6875 
L 54.296875 54.6875 
L 54.296875 0 
L 45.3125 0 
L 45.3125 8.40625 
Q 42.046875 3.421875 37.71875 1 
Q 33.40625 -1.421875 27.6875 -1.421875 
Q 18.265625 -1.421875 13.375 4.4375 
Q 8.5 10.296875 8.5 21.578125 
z
M 31.109375 56 
z
" id="DejaVuSans-117"/>
     <path d="M 54.890625 33.015625 
L 54.890625 0 
L 45.90625 0 
L 45.90625 32.71875 
Q 45.90625 40.484375 42.875 44.328125 
Q 39.84375 48.1875 33.796875 48.1875 
Q 26.515625 48.1875 22.3125 43.546875 
Q 18.109375 38.921875 18.109375 30.90625 
L 18.109375 0 
L 9.078125 0 
L 9.078125 75.984375 
L 18.109375 75.984375 
L 18.109375 46.1875 
Q 21.34375 51.125 25.703125 53.5625 
Q 30.078125 56 35.796875 56 
Q 45.21875 56 50.046875 50.171875 
Q 54.890625 44.34375 54.890625 33.015625 
z
" id="DejaVuSans-104"/>
     <path d="M 30.609375 48.390625 
Q 23.390625 48.390625 19.1875 42.75 
Q 14.984375 37.109375 14.984375 27.296875 
Q 14.984375 17.484375 19.15625 11.84375 
Q 23.34375 6.203125 30.609375 6.203125 
Q 37.796875 6.203125 41.984375 11.859375 
Q 46.1875 17.53125 46.1875 27.296875 
Q 46.1875 37.015625 41.984375 42.703125 
Q 37.796875 48.390625 30.609375 48.390625 
z
M 30.609375 56 
Q 42.328125 56 49.015625 48.375 
Q 55.71875 40.765625 55.71875 27.296875 
Q 55.71875 13.875 49.015625 6.21875 
Q 42.328125 -1.421875 30.609375 -1.421875 
Q 18.84375 -1.421875 12.171875 6.21875 
Q 5.515625 13.875 5.515625 27.296875 
Q 5.515625 40.765625 12.171875 48.375 
Q 18.84375 56 30.609375 56 
z
" id="DejaVuSans-111"/>
     <path d="M 37.109375 75.984375 
L 37.109375 68.5 
L 28.515625 68.5 
Q 23.6875 68.5 21.796875 66.546875 
Q 19.921875 64.59375 19.921875 59.515625 
L 19.921875 54.6875 
L 34.71875 54.6875 
L 34.71875 47.703125 
L 19.921875 47.703125 
L 19.921875 0 
L 10.890625 0 
L 10.890625 47.703125 
L 2.296875 47.703125 
L 2.296875 54.6875 
L 10.890625 54.6875 
L 10.890625 58.5 
Q 10.890625 67.625 15.140625 71.796875 
Q 19.390625 75.984375 28.609375 75.984375 
z
" id="DejaVuSans-102"/>
     <path d="M 45.40625 46.390625 
L 45.40625 75.984375 
L 54.390625 75.984375 
L 54.390625 0 
L 45.40625 0 
L 45.40625 8.203125 
Q 42.578125 3.328125 38.25 0.953125 
Q 33.9375 -1.421875 27.875 -1.421875 
Q 17.96875 -1.421875 11.734375 6.484375 
Q 5.515625 14.40625 5.515625 27.296875 
Q 5.515625 40.1875 11.734375 48.09375 
Q 17.96875 56 27.875 56 
Q 33.9375 56 38.25 53.625 
Q 42.578125 51.265625 45.40625 46.390625 
z
M 14.796875 27.296875 
Q 14.796875 17.390625 18.875 11.75 
Q 22.953125 6.109375 30.078125 6.109375 
Q 37.203125 6.109375 41.296875 11.75 
Q 45.40625 17.390625 45.40625 27.296875 
Q 45.40625 37.203125 41.296875 42.84375 
Q 37.203125 48.484375 30.078125 48.484375 
Q 22.953125 48.484375 18.875 42.84375 
Q 14.796875 37.203125 14.796875 27.296875 
z
" id="DejaVuSans-100"/>
    </defs>
    <g transform="translate(234.07875 63.12)scale(0.12 -0.12)">
     <use xlink:href="#DejaVuSans-65"/>
     <use x="68.408203" xlink:href="#DejaVuSans-122"/>
     <use x="120.898438" xlink:href="#DejaVuSans-105"/>
     <use x="148.681641" xlink:href="#DejaVuSans-109"/>
     <use x="246.09375" xlink:href="#DejaVuSans-117"/>
     <use x="309.472656" xlink:href="#DejaVuSans-116"/>
     <use x="348.681641" xlink:href="#DejaVuSans-104"/>
     <use x="412.060547" xlink:href="#DejaVuSans-97"/>
     <use x="473.339844" xlink:href="#DejaVuSans-108"/>
     <use x="501.123047" xlink:href="#DejaVuSans-32"/>
     <use x="532.910156" xlink:href="#DejaVuSans-105"/>
     <use x="560.693359" xlink:href="#DejaVuSans-110"/>
     <use x="624.072266" xlink:href="#DejaVuSans-116"/>
     <use x="663.28125" xlink:href="#DejaVuSans-101"/>
     <use x="724.804688" xlink:href="#DejaVuSans-103"/>
     <use x="788.28125" xlink:href="#DejaVuSans-114"/>
     <use x="829.394531" xlink:href="#DejaVuSans-97"/>
     <use x="890.673828" xlink:href="#DejaVuSans-116"/>
     <use x="929.882812" xlink:href="#DejaVuSans-105"/>
     <use x="957.666016" xlink:href="#DejaVuSans-111"/>
     <use x="1018.847656" xlink:href="#DejaVuSans-110"/>
     <use x="1082.226562" xlink:href="#DejaVuSans-32"/>
     <use x="1114.013672" xlink:href="#DejaVuSans-111"/>
     <use x="1175.195312" xlink:href="#DejaVuSans-102"/>
     <use x="1210.400391" xlink:href="#DejaVuSans-32"/>
     <use x="1242.1875" xlink:href="#DejaVuSans-49"/>
     <use x="1305.810547" xlink:href="#DejaVuSans-50"/>
     <use x="1369.433594" xlink:href="#DejaVuSans-49"/>
     <use x="1433.056641" xlink:href="#DejaVuSans-32"/>
     <use x="1464.84375" xlink:href="#DejaVuSans-105"/>
     <use x="1492.626953" xlink:href="#DejaVuSans-109"/>
     <use x="1590.039062" xlink:href="#DejaVuSans-97"/>
     <use x="1651.318359" xlink:href="#DejaVuSans-103"/>
     <use x="1714.794922" xlink:href="#DejaVuSans-101"/>
     <use x="1776.318359" xlink:href="#DejaVuSans-115"/>
     <use x="1828.417969" xlink:href="#DejaVuSans-32"/>
     <use x="1860.205078" xlink:href="#DejaVuSans-109"/>
     <use x="1957.617188" xlink:href="#DejaVuSans-101"/>
     <use x="2019.140625" xlink:href="#DejaVuSans-114"/>
     <use x="2060.238281" xlink:href="#DejaVuSans-103"/>
     <use x="2123.714844" xlink:href="#DejaVuSans-101"/>
     <use x="2185.238281" xlink:href="#DejaVuSans-100"/>
    </g>
   </g>
   <g id="axes_2">
    <g id="patch_7">
     <path d="M 369 290.88 
L 592.2 290.88 
L 592.2 157.824 
L 369 157.824 
z
" style="fill:#ffffff;"/>
    </g>
    <g id="matplotlib.axis_3">
     <g id="xtick_7">
      <g id="line2d_14">
       <g>
        <use style="stroke:#000000;stroke-width:0.8;" x="369" xlink:href="#m58963d0932" y="290.88"/>
       </g>
      </g>
      <g id="text_16">
       <!-- 10.5 -->
       <defs>
        <path d="M 10.6875 12.40625 
L 21 12.40625 
L 21 0 
L 10.6875 0 
z
" id="DejaVuSans-46"/>
       </defs>
       <g transform="translate(357.867188 305.478437)scale(0.1 -0.1)">
        <use xlink:href="#DejaVuSans-49"/>
        <use x="63.623047" xlink:href="#DejaVuSans-48"/>
        <use x="127.246094" xlink:href="#DejaVuSans-46"/>
        <use x="159.033203" xlink:href="#DejaVuSans-53"/>
       </g>
      </g>
     </g>
     <g id="xtick_8">
      <g id="line2d_15">
       <g>
        <use style="stroke:#000000;stroke-width:0.8;" x="413.64" xlink:href="#m58963d0932" y="290.88"/>
       </g>
      </g>
      <g id="text_17">
       <!-- 10.6 -->
       <g transform="translate(402.507187 305.478437)scale(0.1 -0.1)">
        <use xlink:href="#DejaVuSans-49"/>
        <use x="63.623047" xlink:href="#DejaVuSans-48"/>
        <use x="127.246094" xlink:href="#DejaVuSans-46"/>
        <use x="159.033203" xlink:href="#DejaVuSans-54"/>
       </g>
      </g>
     </g>
     <g id="xtick_9">
      <g id="line2d_16">
       <g>
        <use style="stroke:#000000;stroke-width:0.8;" x="458.28" xlink:href="#m58963d0932" y="290.88"/>
       </g>
      </g>
      <g id="text_18">
       <!-- 10.7 -->
       <defs>
        <path d="M 8.203125 72.90625 
L 55.078125 72.90625 
L 55.078125 68.703125 
L 28.609375 0 
L 18.3125 0 
L 43.21875 64.59375 
L 8.203125 64.59375 
z
" id="DejaVuSans-55"/>
       </defs>
       <g transform="translate(447.147188 305.478437)scale(0.1 -0.1)">
        <use xlink:href="#DejaVuSans-49"/>
        <use x="63.623047" xlink:href="#DejaVuSans-48"/>
        <use x="127.246094" xlink:href="#DejaVuSans-46"/>
        <use x="159.033203" xlink:href="#DejaVuSans-55"/>
       </g>
      </g>
     </g>
     <g id="xtick_10">
      <g id="line2d_17">
       <g>
        <use style="stroke:#000000;stroke-width:0.8;" x="502.92" xlink:href="#m58963d0932" y="290.88"/>
       </g>
      </g>
      <g id="text_19">
       <!-- 10.8 -->
       <g transform="translate(491.787188 305.478437)scale(0.1 -0.1)">
        <use xlink:href="#DejaVuSans-49"/>
        <use x="63.623047" xlink:href="#DejaVuSans-48"/>
        <use x="127.246094" xlink:href="#DejaVuSans-46"/>
        <use x="159.033203" xlink:href="#DejaVuSans-56"/>
       </g>
      </g>
     </g>
     <g id="xtick_11">
      <g id="line2d_18">
       <g>
        <use style="stroke:#000000;stroke-width:0.8;" x="547.56" xlink:href="#m58963d0932" y="290.88"/>
       </g>
      </g>
      <g id="text_20">
       <!-- 10.9 -->
       <defs>
        <path d="M 10.984375 1.515625 
L 10.984375 10.5 
Q 14.703125 8.734375 18.5 7.8125 
Q 22.3125 6.890625 25.984375 6.890625 
Q 35.75 6.890625 40.890625 13.453125 
Q 46.046875 20.015625 46.78125 33.40625 
Q 43.953125 29.203125 39.59375 26.953125 
Q 35.25 24.703125 29.984375 24.703125 
Q 19.046875 24.703125 12.671875 31.3125 
Q 6.296875 37.9375 6.296875 49.421875 
Q 6.296875 60.640625 12.9375 67.421875 
Q 19.578125 74.21875 30.609375 74.21875 
Q 43.265625 74.21875 49.921875 64.515625 
Q 56.59375 54.828125 56.59375 36.375 
Q 56.59375 19.140625 48.40625 8.859375 
Q 40.234375 -1.421875 26.421875 -1.421875 
Q 22.703125 -1.421875 18.890625 -0.6875 
Q 15.09375 0.046875 10.984375 1.515625 
z
M 30.609375 32.421875 
Q 37.25 32.421875 41.125 36.953125 
Q 45.015625 41.5 45.015625 49.421875 
Q 45.015625 57.28125 41.125 61.84375 
Q 37.25 66.40625 30.609375 66.40625 
Q 23.96875 66.40625 20.09375 61.84375 
Q 16.21875 57.28125 16.21875 49.421875 
Q 16.21875 41.5 20.09375 36.953125 
Q 23.96875 32.421875 30.609375 32.421875 
z
" id="DejaVuSans-57"/>
       </defs>
       <g transform="translate(536.427188 305.478437)scale(0.1 -0.1)">
        <use xlink:href="#DejaVuSans-49"/>
        <use x="63.623047" xlink:href="#DejaVuSans-48"/>
        <use x="127.246094" xlink:href="#DejaVuSans-46"/>
        <use x="159.033203" xlink:href="#DejaVuSans-57"/>
       </g>
      </g>
     </g>
     <g id="xtick_12">
      <g id="line2d_19">
       <g>
        <use style="stroke:#000000;stroke-width:0.8;" x="592.2" xlink:href="#m58963d0932" y="290.88"/>
       </g>
      </g>
      <g id="text_21">
       <!-- 11.0 -->
       <g transform="translate(581.067187 305.478437)scale(0.1 -0.1)">
        <use xlink:href="#DejaVuSans-49"/>
        <use x="63.623047" xlink:href="#DejaVuSans-49"/>
        <use x="127.246094" xlink:href="#DejaVuSans-46"/>
        <use x="159.033203" xlink:href="#DejaVuSans-48"/>
       </g>
      </g>
     </g>
    </g>
    <g id="matplotlib.axis_4">
     <g id="ytick_6">
      <g id="line2d_20">
       <g>
        <use style="stroke:#000000;stroke-width:0.8;" x="369" xlink:href="#mff4c5278f4" y="285.034411"/>
       </g>
      </g>
      <g id="text_22">
       <!-- 0 -->
       <g transform="translate(355.6375 288.833629)scale(0.1 -0.1)">
        <use xlink:href="#DejaVuSans-48"/>
       </g>
      </g>
     </g>
     <g id="ytick_7">
      <g id="line2d_21">
       <g>
        <use style="stroke:#000000;stroke-width:0.8;" x="369" xlink:href="#mff4c5278f4" y="256.368254"/>
       </g>
      </g>
      <g id="text_23">
       <!-- 2 -->
       <g transform="translate(355.6375 260.167473)scale(0.1 -0.1)">
        <use xlink:href="#DejaVuSans-50"/>
       </g>
      </g>
     </g>
     <g id="ytick_8">
      <g id="line2d_22">
       <g>
        <use style="stroke:#000000;stroke-width:0.8;" x="369" xlink:href="#mff4c5278f4" y="227.702098"/>
       </g>
      </g>
      <g id="text_24">
       <!-- 4 -->
       <g transform="translate(355.6375 231.501316)scale(0.1 -0.1)">
        <use xlink:href="#DejaVuSans-52"/>
       </g>
      </g>
     </g>
     <g id="ytick_9">
      <g id="line2d_23">
       <g>
        <use style="stroke:#000000;stroke-width:0.8;" x="369" xlink:href="#mff4c5278f4" y="199.035941"/>
       </g>
      </g>
      <g id="text_25">
       <!-- 6 -->
       <g transform="translate(355.6375 202.83516)scale(0.1 -0.1)">
        <use xlink:href="#DejaVuSans-54"/>
       </g>
      </g>
     </g>
     <g id="ytick_10">
      <g id="line2d_24">
       <g>
        <use style="stroke:#000000;stroke-width:0.8;" x="369" xlink:href="#mff4c5278f4" y="170.369785"/>
       </g>
      </g>
      <g id="text_26">
       <!-- 8 -->
       <g transform="translate(355.6375 174.169003)scale(0.1 -0.1)">
        <use xlink:href="#DejaVuSans-56"/>
       </g>
      </g>
     </g>
     <g id="text_27">
      <!-- 1e10 -->
      <g transform="translate(369 154.824)scale(0.1 -0.1)">
       <use xlink:href="#DejaVuSans-49"/>
       <use x="63.623047" xlink:href="#DejaVuSans-101"/>
       <use x="125.146484" xlink:href="#DejaVuSans-49"/>
       <use x="188.769531" xlink:href="#DejaVuSans-48"/>
      </g>
     </g>
    </g>
    <g id="line2d_25">
     <path clip-path="url(#p8eacdbecd9)" d="M 368.824274 282.911838 
L 374.283209 282.91096 
L 379.742145 282.913552 
L 385.20108 282.911081 
L 390.660016 282.906765 
L 396.118952 282.906663 
L 401.577887 282.918181 
L 407.036823 282.899547 
L 412.495758 282.897473 
L 417.954694 282.877526 
L 423.41363 282.855835 
L 428.872565 282.820952 
L 434.331501 282.744133 
L 439.790436 282.584079 
L 445.249372 281.892182 
L 450.708308 266.732617 
L 456.167243 210.873699 
L 461.626179 236.437188 
L 467.085114 278.433233 
L 472.54405 282.405392 
L 478.002986 282.722659 
L 483.461921 282.836307 
L 488.920857 282.901433 
L 494.379792 282.929542 
L 499.838728 282.951631 
L 505.297664 282.964161 
L 510.756599 282.977917 
L 516.215535 282.990974 
L 521.67447 282.995866 
L 527.133406 283.005361 
L 532.592342 283.007234 
L 538.051277 283.005899 
L 543.510213 283.012013 
L 548.969148 283.02176 
L 554.428084 283.016071 
L 559.88702 283.015565 
L 565.345955 283.022734 
L 570.804891 283.021884 
L 576.263826 283.028946 
L 581.722762 283.029933 
L 587.181698 283.03202 
L 592.640633 283.03935 
" style="fill:none;stroke:#1f77b4;stroke-linecap:square;stroke-width:1.5;"/>
    </g>
    <g id="line2d_26">
     <path clip-path="url(#p8eacdbecd9)" d="M 368.824274 282.915618 
L 374.283209 282.913619 
L 379.742145 282.909196 
L 385.20108 282.908091 
L 390.660016 282.909334 
L 396.118952 282.909553 
L 401.577887 282.902436 
L 407.036823 282.898183 
L 412.495758 282.896915 
L 417.954694 282.877354 
L 423.41363 282.846814 
L 428.872565 282.797452 
L 434.331501 282.64426 
L 439.790436 280.796346 
L 445.249372 269.607808 
L 450.708308 258.064499 
L 456.167243 254.488617 
L 461.626179 253.739551 
L 467.085114 256.856789 
L 472.54405 268.531218 
L 478.002986 280.394842 
L 483.461921 282.660333 
L 488.920857 282.844162 
L 494.379792 282.901821 
L 499.838728 282.942915 
L 505.297664 282.962908 
L 510.756599 282.967419 
L 516.215535 282.983273 
L 521.67447 282.993714 
L 527.133406 283.000141 
L 532.592342 283.003936 
L 538.051277 283.010615 
L 543.510213 283.01691 
L 548.969148 283.005302 
L 554.428084 283.012202 
L 559.88702 283.025056 
L 565.345955 283.022071 
L 570.804891 283.018288 
L 576.263826 283.028452 
L 581.722762 283.030102 
L 587.181698 283.03204 
L 592.640633 283.03689 
" style="fill:none;stroke:#ff7f0e;stroke-linecap:square;stroke-width:1.5;"/>
    </g>
    <g id="patch_8">
     <path d="M 369 290.88 
L 369 157.824 
" style="fill:none;stroke:#000000;stroke-linecap:square;stroke-linejoin:miter;stroke-width:0.8;"/>
    </g>
    <g id="patch_9">
     <path d="M 592.2 290.88 
L 592.2 157.824 
" style="fill:none;stroke:#000000;stroke-linecap:square;stroke-linejoin:miter;stroke-width:0.8;"/>
    </g>
    <g id="patch_10">
     <path d="M 369 290.88 
L 592.2 290.88 
" style="fill:none;stroke:#000000;stroke-linecap:square;stroke-linejoin:miter;stroke-width:0.8;"/>
    </g>
    <g id="patch_11">
     <path d="M 369 157.824 
L 592.2 157.824 
" style="fill:none;stroke:#000000;stroke-linecap:square;stroke-linejoin:miter;stroke-width:0.8;"/>
    </g>
    <g id="text_28">
     <!-- Zoom on first peak -->
     <defs>
      <path d="M 5.609375 72.90625 
L 62.890625 72.90625 
L 62.890625 65.375 
L 16.796875 8.296875 
L 64.015625 8.296875 
L 64.015625 0 
L 4.5 0 
L 4.5 7.515625 
L 50.59375 64.59375 
L 5.609375 64.59375 
z
" id="DejaVuSans-90"/>
      <path d="M 18.109375 8.203125 
L 18.109375 -20.796875 
L 9.078125 -20.796875 
L 9.078125 54.6875 
L 18.109375 54.6875 
L 18.109375 46.390625 
Q 20.953125 51.265625 25.265625 53.625 
Q 29.59375 56 35.59375 56 
Q 45.5625 56 51.78125 48.09375 
Q 58.015625 40.1875 58.015625 27.296875 
Q 58.015625 14.40625 51.78125 6.484375 
Q 45.5625 -1.421875 35.59375 -1.421875 
Q 29.59375 -1.421875 25.265625 0.953125 
Q 20.953125 3.328125 18.109375 8.203125 
z
M 48.6875 27.296875 
Q 48.6875 37.203125 44.609375 42.84375 
Q 40.53125 48.484375 33.40625 48.484375 
Q 26.265625 48.484375 22.1875 42.84375 
Q 18.109375 37.203125 18.109375 27.296875 
Q 18.109375 17.390625 22.1875 11.75 
Q 26.265625 6.109375 33.40625 6.109375 
Q 40.53125 6.109375 44.609375 11.75 
Q 48.6875 17.390625 48.6875 27.296875 
z
" id="DejaVuSans-112"/>
      <path d="M 9.078125 75.984375 
L 18.109375 75.984375 
L 18.109375 31.109375 
L 44.921875 54.6875 
L 56.390625 54.6875 
L 27.390625 29.109375 
L 57.625 0 
L 45.90625 0 
L 18.109375 26.703125 
L 18.109375 0 
L 9.078125 0 
z
" id="DejaVuSans-107"/>
     </defs>
     <g transform="translate(423.733125 151.824)scale(0.12 -0.12)">
      <use xlink:href="#DejaVuSans-90"/>
      <use x="68.505859" xlink:href="#DejaVuSans-111"/>
      <use x="129.6875" xlink:href="#DejaVuSans-111"/>
      <use x="190.869141" xlink:href="#DejaVuSans-109"/>
      <use x="288.28125" xlink:href="#DejaVuSans-32"/>
      <use x="320.068359" xlink:href="#DejaVuSans-111"/>
      <use x="381.25" xlink:href="#DejaVuSans-110"/>
      <use x="444.628906" xlink:href="#DejaVuSans-32"/>
      <use x="476.416016" xlink:href="#DejaVuSans-102"/>
      <use x="511.621094" xlink:href="#DejaVuSans-105"/>
      <use x="539.404297" xlink:href="#DejaVuSans-114"/>
      <use x="580.517578" xlink:href="#DejaVuSans-115"/>
      <use x="632.617188" xlink:href="#DejaVuSans-116"/>
      <use x="671.826172" xlink:href="#DejaVuSans-32"/>
      <use x="703.613281" xlink:href="#DejaVuSans-112"/>
      <use x="767.089844" xlink:href="#DejaVuSans-101"/>
      <use x="828.613281" xlink:href="#DejaVuSans-97"/>
      <use x="889.892578" xlink:href="#DejaVuSans-107"/>
     </g>
    </g>
   </g>
   <g id="legend_1">
    <g id="patch_12">
     <path d="M 511.21875 106.47625 
L 641 106.47625 
Q 643 106.47625 643 104.47625 
L 643 76.12 
Q 643 74.12 641 74.12 
L 511.21875 74.12 
Q 509.21875 74.12 509.21875 76.12 
L 509.21875 104.47625 
Q 509.21875 106.47625 511.21875 106.47625 
z
" style="fill:#ffffff;opacity:0.8;stroke:#cccccc;stroke-linejoin:miter;"/>
    </g>
    <g id="line2d_27">
     <path d="M 513.21875 82.218438 
L 533.21875 82.218438 
" style="fill:none;stroke:#1f77b4;stroke-linecap:square;stroke-width:1.5;"/>
    </g>
    <g id="line2d_28"/>
    <g id="text_29">
     <!-- rot1 &amp; rot2 rotation -->
     <defs>
      <path d="M 24.3125 39.203125 
Q 19.875 35.25 17.796875 31.3125 
Q 15.71875 27.390625 15.71875 23.09375 
Q 15.71875 15.96875 20.890625 11.234375 
Q 26.078125 6.5 33.890625 6.5 
Q 38.53125 6.5 42.578125 8.03125 
Q 46.625 9.578125 50.203125 12.703125 
z
M 31.203125 44.671875 
L 56 19.28125 
Q 58.890625 23.640625 60.5 28.59375 
Q 62.109375 33.546875 62.40625 39.109375 
L 71.484375 39.109375 
Q 70.90625 32.671875 68.359375 26.359375 
Q 65.828125 20.0625 61.28125 13.921875 
L 74.90625 0 
L 62.59375 0 
L 55.609375 7.171875 
Q 50.53125 2.828125 44.96875 0.703125 
Q 39.40625 -1.421875 33.015625 -1.421875 
Q 21.234375 -1.421875 13.765625 5.296875 
Q 6.296875 12.015625 6.296875 22.515625 
Q 6.296875 28.765625 9.5625 34.25 
Q 12.84375 39.75 19.390625 44.578125 
Q 17.046875 47.65625 15.8125 50.703125 
Q 14.59375 53.765625 14.59375 56.6875 
Q 14.59375 64.59375 20.015625 69.40625 
Q 25.4375 74.21875 34.421875 74.21875 
Q 38.484375 74.21875 42.5 73.34375 
Q 46.53125 72.46875 50.6875 70.703125 
L 50.6875 61.8125 
Q 46.4375 64.109375 42.578125 65.296875 
Q 38.71875 66.5 35.40625 66.5 
Q 30.28125 66.5 27.078125 63.78125 
Q 23.875 61.078125 23.875 56.78125 
Q 23.875 54.296875 25.3125 51.78125 
Q 26.765625 49.265625 31.203125 44.671875 
z
" id="DejaVuSans-38"/>
     </defs>
     <g transform="translate(541.21875 85.718438)scale(0.1 -0.1)">
      <use xlink:href="#DejaVuSans-114"/>
      <use x="41.082031" xlink:href="#DejaVuSans-111"/>
      <use x="102.263672" xlink:href="#DejaVuSans-116"/>
      <use x="141.472656" xlink:href="#DejaVuSans-49"/>
      <use x="205.095703" xlink:href="#DejaVuSans-32"/>
      <use x="236.882812" xlink:href="#DejaVuSans-38"/>
      <use x="314.861328" xlink:href="#DejaVuSans-32"/>
      <use x="346.648438" xlink:href="#DejaVuSans-114"/>
      <use x="387.730469" xlink:href="#DejaVuSans-111"/>
      <use x="448.912109" xlink:href="#DejaVuSans-116"/>
      <use x="488.121094" xlink:href="#DejaVuSans-50"/>
      <use x="551.744141" xlink:href="#DejaVuSans-32"/>
      <use x="583.53125" xlink:href="#DejaVuSans-114"/>
      <use x="624.613281" xlink:href="#DejaVuSans-111"/>
      <use x="685.794922" xlink:href="#DejaVuSans-116"/>
      <use x="725.003906" xlink:href="#DejaVuSans-97"/>
      <use x="786.283203" xlink:href="#DejaVuSans-116"/>
      <use x="825.492188" xlink:href="#DejaVuSans-105"/>
      <use x="853.275391" xlink:href="#DejaVuSans-111"/>
      <use x="914.457031" xlink:href="#DejaVuSans-110"/>
     </g>
    </g>
    <g id="line2d_29">
     <path d="M 513.21875 96.896563 
L 533.21875 96.896563 
" style="fill:none;stroke:#ff7f0e;stroke-linecap:square;stroke-width:1.5;"/>
    </g>
    <g id="line2d_30"/>
    <g id="text_30">
     <!-- rot2 only rotation -->
     <g transform="translate(541.21875 100.396563)scale(0.1 -0.1)">
      <use xlink:href="#DejaVuSans-114"/>
      <use x="41.082031" xlink:href="#DejaVuSans-111"/>
      <use x="102.263672" xlink:href="#DejaVuSans-116"/>
      <use x="141.472656" xlink:href="#DejaVuSans-50"/>
      <use x="205.095703" xlink:href="#DejaVuSans-32"/>
      <use x="236.882812" xlink:href="#DejaVuSans-111"/>
      <use x="298.064453" xlink:href="#DejaVuSans-110"/>
      <use x="361.443359" xlink:href="#DejaVuSans-108"/>
      <use x="389.226562" xlink:href="#DejaVuSans-121"/>
      <use x="448.40625" xlink:href="#DejaVuSans-32"/>
      <use x="480.193359" xlink:href="#DejaVuSans-114"/>
      <use x="521.275391" xlink:href="#DejaVuSans-111"/>
      <use x="582.457031" xlink:href="#DejaVuSans-116"/>
      <use x="621.666016" xlink:href="#DejaVuSans-97"/>
      <use x="682.945312" xlink:href="#DejaVuSans-116"/>
      <use x="722.154297" xlink:href="#DejaVuSans-105"/>
      <use x="749.9375" xlink:href="#DejaVuSans-111"/>
      <use x="811.119141" xlink:href="#DejaVuSans-110"/>
     </g>
    </g>
   </g>
  </g>
 </g>
 <defs>
  <clipPath id="p2dbbdcc476">
   <rect height="443.52" width="558" x="90" y="69.12"/>
  </clipPath>
  <clipPath id="p8eacdbecd9">
   <rect height="133.056" width="223.2" x="369" y="157.824"/>
  </clipPath>
 </defs>
</svg>
